<?xml version="1.0" standalone="no"?>
<!DOCTYPE svg PUBLIC "-//W3C//DTD SVG 20010904//EN"
 "http://www.w3.org/TR/2001/REC-SVG-20010904/DTD/svg10.dtd">
<svg version="1.0" xmlns="http://www.w3.org/2000/svg"
 width="500.000000pt" height="500.000000pt" viewBox="0 0 500.000000 500.000000"
 preserveAspectRatio="xMidYMid meet">
<metadata>
Created by potrace 1.16, written by Peter Selinger 2001-2019
</metadata>
<g transform="translate(0.000000,500.000000) scale(0.100000,-0.100000)"
fill="#000000" stroke="none">
<path d="M2121 4914 c-429 -67 -882 -279 -1226 -574 -462 -398 -744 -937 -816
-1559 -15 -134 -6 -471 16 -611 73 -462 307 -952 625 -1312 275 -311 634 -547
1034 -679 258 -85 419 -109 738 -109 285 0 385 11 603 67 172 44 396 125 383
138 -3 3 -31 -6 -62 -20 -69 -30 -264 -91 -361 -111 -228 -49 -480 -63 -708
-40 -144 14 -332 44 -324 52 2 2 59 -4 128 -12 182 -23 638 -14 799 15 476 87
895 304 1255 650 85 83 90 86 36 26 -103 -112 -247 -239 -378 -332 -67 -48
-121 -89 -119 -91 6 -5 182 113 271 183 461 362 772 882 875 1465 28 158 38
483 20 655 -31 306 -123 603 -277 895 -144 272 -267 445 -443 620 -205 205
-394 341 -645 465 -215 106 -435 177 -680 219 -121 21 -607 21 -744 0z m555
-15 c111 -11 375 -61 416 -79 23 -10 23 -10 -2 -6 -294 56 -465 69 -730 56
-382 -18 -684 -97 -1000 -262 -232 -120 -445 -281 -626 -470 -63 -67 -79 -80
-43 -38 128 153 328 329 519 455 399 263 958 394 1466 344z m46 -104 c268 -31
492 -97 743 -220 471 -229 855 -613 1080 -1080 108 -225 193 -508 215 -721 13
-116 30 -188 23 -94 -22 306 -99 600 -229 869 -81 169 -142 268 -244 399 -43
56 -78 102 -76 102 2 0 35 -37 74 -83 86 -101 229 -311 278 -409 93 -184 175
-448 211 -678 25 -162 25 -531 0 -685 -28 -169 -110 -486 -122 -473 -3 2 9 50
25 107 57 199 92 439 88 615 -1 64 -3 73 -5 31 -31 -634 -263 -1176 -683
-1595 -351 -350 -786 -576 -1275 -661 -173 -30 -465 -32 -632 -6 -248 40 -440
101 -678 217 -325 158 -610 394 -832 690 -242 323 -384 659 -450 1065 -24 153
-24 478 1 628 112 681 473 1248 1026 1609 447 292 984 429 1462 373z m-1602
-399 c0 -2 -42 -37 -93 -78 -211 -170 -367 -339 -509 -553 -159 -238 -294
-562 -352 -842 -27 -130 -35 -116 -11 20 53 307 223 680 437 959 91 119 317
344 433 431 90 67 95 70 95 63z m-849 -1302 c-82 -317 -93 -703 -30 -1039 80
-436 256 -796 557 -1145 l73 -85 -81 85 c-219 231 -372 469 -469 735 -100 274
-144 521 -144 815 0 249 23 421 84 643 28 101 36 93 10 -9z m4584 -901 c-44
-423 -247 -863 -564 -1220 -118 -132 -307 -300 -431 -383 -47 -31 -21 -6 70
67 409 331 670 697 820 1150 47 143 100 369 100 427 0 14 3 26 6 26 4 0 3 -30
-1 -67z"/>
<path d="M3829 4066 c-3 -3 -14 -7 -25 -9 -24 -4 -77 -52 -81 -75 -10 -61 -12
-102 -3 -102 6 0 10 -9 10 -21 0 -11 5 -17 10 -14 6 3 10 14 10 24 0 30 19 40
48 25 15 -7 35 -15 45 -18 9 -3 17 -15 17 -27 0 -19 -5 -21 -45 -17 -25 2 -45
-1 -45 -5 0 -4 21 -7 48 -5 l47 3 -3 48 c-2 31 1 47 7 43 5 -4 12 -2 16 4 4 6
15 4 31 -7 22 -14 26 -14 37 -1 27 33 46 29 57 -13 10 -36 12 -38 26 -24 12
12 14 25 8 58 -5 23 -9 47 -9 53 -1 16 -48 64 -63 64 -7 0 -11 4 -8 8 5 9
-126 16 -135 8z"/>
<path d="M3586 3685 c-8 -16 -17 -56 -19 -87 l-5 -58 314 0 314 0 0 59 c0 33
2 65 3 73 2 7 2 9 -1 5 -2 -5 -9 1 -16 13 -6 13 -14 22 -18 21 -5 0 -53 -1
-109 -1 l-101 0 7 -38 c5 -34 2 -43 -23 -70 -34 -36 -50 -39 -92 -17 -39 20
-52 48 -44 89 l6 35 -100 3 -100 3 -16 -30z"/>
</g>
</svg>
