<?xml version="1.0" standalone="no"?>
<!DOCTYPE svg PUBLIC "-//W3C//DTD SVG 20010904//EN"
 "http://www.w3.org/TR/2001/REC-SVG-20010904/DTD/svg10.dtd">
<svg version="1.0" xmlns="http://www.w3.org/2000/svg"
 width="1000.000000pt" height="1000.000000pt" viewBox="0 0 1000.000000 1000.000000"
 preserveAspectRatio="xMidYMid meet">
<metadata>
Created by potrace 1.16, written by Peter Selinger 2001-2019
</metadata>
<g transform="translate(0.000000,1000.000000) scale(0.100000,-0.100000)"
fill="#000000" stroke="none">
<path d="M2440 9483 c-515 -24 -932 -166 -1265 -431 -349 -278 -592 -683 -676
-1125 -57 -302 -53 -142 -56 -2442 -2 -1762 0 -2115 11 -2090 7 17 11 35 9 41
-2 7 1 15 7 19 8 5 7 11 -2 23 -11 15 -11 15 4 4 14 -11 18 -10 27 5 8 14 10
15 11 3 0 -13 2 -13 9 0 6 8 7 19 3 25 -3 5 3 3 13 -5 17 -14 18 -13 12 2 -3
10 -2 20 2 22 5 3 8 -5 7 -17 -1 -12 -7 -21 -13 -20 -10 2 -12 -29 -4 -56 0
-2 9 3 19 12 10 10 22 14 26 10 4 -4 3 4 -3 19 -11 30 -11 69 1 62 4 -3 9 0 9
5 1 6 2 15 3 20 0 5 5 13 9 18 5 4 7 3 5 -2 -2 -6 2 -10 7 -10 5 0 9 4 7 9 -2
5 4 4 12 -4 21 -17 20 -2 -2 24 -16 20 -16 20 1 7 25 -19 42 -52 26 -49 -7 2
-18 -8 -26 -22 -9 -18 -13 -20 -13 -8 0 9 -4 19 -9 23 -6 3 -9 -4 -8 -15 1
-10 7 -22 15 -25 7 -3 10 -10 6 -17 -4 -8 -3 -10 2 -5 9 9 10 13 13 43 0 8 6
12 12 9 6 -4 8 -13 5 -21 -3 -7 -1 -16 3 -18 5 -3 8 6 7 19 0 14 4 24 9 22 6
-1 9 -6 7 -10 -1 -5 2 -6 8 -2 6 3 7 12 3 18 -4 7 -7 21 -5 32 1 17 1 17 -6 3
-6 -15 -9 -14 -19 8 -11 23 -10 24 4 12 14 -11 16 -10 11 10 -8 29 0 29 12 -1
9 -22 9 -22 11 3 1 14 1 29 0 34 -1 5 4 4 12 -2 19 -16 30 -3 15 17 -7 9 0 5
15 -8 32 -29 33 -31 8 -26 -16 3 -19 -1 -15 -22 3 -16 1 -22 -6 -18 -6 4 -9
13 -6 21 3 7 1 16 -3 19 -5 2 -12 -12 -16 -32 -5 -28 -2 -39 12 -52 10 -9 12
-10 5 -1 -14 17 -16 54 -2 45 6 -4 8 -10 5 -15 -3 -5 0 -12 7 -16 7 -4 10 -4
6 1 -4 4 -3 14 2 21 6 6 9 16 8 20 -2 5 2 9 7 9 6 0 9 -3 8 -6 -1 -3 4 -6 12
-6 8 0 13 5 12 11 -1 6 3 10 10 9 8 -2 10 4 6 14 -5 12 -3 14 8 7 18 -11 39
-14 37 -6 -1 4 2 15 7 25 4 10 3 28 -3 41 -8 17 -7 23 3 23 8 0 11 -7 7 -15
-4 -10 -1 -13 7 -8 8 5 10 18 7 35 -5 22 -5 23 5 8 6 -10 7 -26 3 -35 -11 -25
-13 -52 -3 -57 4 -3 6 6 3 21 -3 15 -1 23 5 20 5 -4 12 -2 16 4 4 6 10 8 14 6
4 -3 6 9 4 27 -2 30 -2 30 6 7 9 -22 9 -21 8 12 0 21 2 40 5 43 3 3 6 -4 6
-17 2 -30 7 -56 13 -62 3 -3 4 15 3 39 -1 25 3 48 8 52 6 3 8 1 4 -5 -3 -6 -2
-13 4 -17 5 -3 11 1 11 9 3 29 4 34 12 43 5 4 7 1 5 -7 -4 -19 25 -20 34 0 6
13 7 13 7 -1 1 -9 -8 -24 -19 -34 -19 -17 -20 -17 -21 1 0 15 -2 14 -10 -5 -8
-19 -6 -28 8 -40 11 -10 13 -11 5 -1 -19 22 -14 35 7 16 14 -13 21 -14 27 -5
4 7 3 10 -4 5 -6 -3 -13 -2 -17 4 -4 6 7 10 27 10 25 0 29 -3 18 -10 -14 -9
-13 -10 18 -10 4 0 7 5 7 10 0 6 4 9 10 8 5 -2 9 -7 7 -11 -1 -5 2 -6 8 -2 6
3 8 10 5 15 -3 5 -1 11 5 15 5 3 10 17 10 31 0 14 -4 23 -9 20 -5 -3 -7 -16
-4 -29 4 -21 3 -21 -11 3 l-16 25 3 -24 c2 -20 -3 -24 -28 -27 -24 -3 -26 -2
-10 5 11 5 23 7 27 4 4 -2 5 10 3 27 -3 25 -1 29 10 20 10 -8 18 -4 33 17 18
25 21 26 27 10 7 -17 8 -17 22 0 8 10 12 12 8 6 -12 -24 -14 -53 -4 -53 6 0 6
-8 -1 -20 -15 -28 -32 -15 -27 20 3 15 1 34 -4 41 -7 12 -9 11 -10 -1 -2 -30
3 -65 12 -77 6 -7 6 -13 0 -17 -5 -3 -12 0 -14 6 -4 9 -6 10 -6 1 -1 -19 16
-24 29 -8 7 8 17 15 22 15 6 0 6 -5 -1 -14 -9 -10 -8 -16 4 -26 8 -7 15 -17
15 -23 0 -5 -10 -2 -22 9 -20 18 -20 17 2 -13 27 -37 32 -41 23 -16 -4 11 -3
14 5 9 8 -5 10 -1 5 11 -6 15 -4 16 9 5 11 -9 18 -10 23 -2 3 6 11 7 17 4 7
-4 8 -2 4 4 -4 7 -2 12 5 12 6 0 9 -8 6 -19 -3 -12 4 -28 19 -42 13 -12 21
-26 17 -32 -3 -6 -1 -7 6 -3 8 6 9 11 2 20 -8 10 -5 18 9 31 11 10 20 13 20 7
0 -6 -5 -14 -11 -17 -7 -5 -4 -14 7 -26 16 -17 13 -24 -9 -20 -5 1 -6 -3 -2
-9 5 -8 11 -7 21 1 13 10 13 14 0 28 -13 14 -13 19 1 36 15 20 15 20 10 -2 -3
-13 -1 -26 4 -29 5 -3 9 -2 8 3 -1 4 -1 17 0 28 1 16 3 17 10 5 6 -8 7 -19 3
-25 -3 -5 1 -4 10 2 17 14 28 8 28 -16 0 -14 -2 -14 -10 -1 -7 11 -10 11 -10
2 0 -7 -4 -11 -9 -7 -5 3 -12 1 -15 -3 -3 -5 7 -8 22 -7 26 1 42 -9 42 -29 0
-5 -8 -2 -17 5 -17 13 -17 13 0 -7 9 -11 15 -24 12 -27 -3 -4 -2 -4 2 -1 8 5
9 9 12 36 2 25 21 -20 23 -60 1 -8 7 -7 20 5 17 15 23 11 18 -12 -1 -5 2 -6 7
-2 4 5 8 13 8 18 0 5 4 8 10 7 5 -2 8 -7 7 -13 -10 -28 -10 -44 1 -42 7 1 11
-4 9 -11 -1 -8 2 -11 8 -7 8 5 7 11 -1 21 -11 13 -6 18 14 15 5 -1 6 3 2 9 -3
6 -11 8 -16 5 -5 -4 -9 -1 -9 4 0 6 6 11 13 11 8 0 7 4 -3 10 -9 6 -10 10 -3
10 8 0 11 27 8 97 -8 238 -12 2165 -5 2417 17 552 53 799 159 1079 175 467
526 816 996 992 225 85 442 124 810 147 280 18 2337 18 2625 0 384 -24 596
-61 825 -147 624 -233 1027 -767 1119 -1485 36 -273 41 -494 41 -1635 0 -1141
-6 -1383 -41 -1655 -52 -405 -202 -752 -443 -1027 -198 -224 -432 -378 -735
-482 -171 -59 -484 -119 -631 -122 -27 0 -43 -3 -35 -6 8 -3 18 -11 22 -17 5
-8 8 -7 8 2 0 6 11 12 25 12 14 0 25 -5 25 -11 0 -5 -5 -7 -12 -3 -7 4 -8 3
-4 -4 4 -6 13 -9 21 -6 8 4 13 9 10 13 -2 4 2 8 10 8 8 0 12 -4 9 -8 -2 -4 0
-10 5 -14 6 -3 9 -11 7 -18 -1 -7 -1 -9 1 -4 3 4 9 7 14 7 6 0 7 -6 3 -12 -5
-10 -4 -10 6 -1 13 12 5 37 -9 29 -4 -3 -8 1 -8 7 0 7 10 14 21 15 17 1 18 -1
6 -8 -15 -9 -13 -11 13 -14 6 -1 12 -11 11 -24 0 -12 2 -20 4 -17 3 3 15 -3
26 -12 17 -15 19 -15 8 -1 -11 14 -10 18 7 30 12 8 19 17 16 19 -2 3 6 5 19 5
19 0 23 -4 20 -22 -2 -13 0 -26 6 -29 6 -4 8 -10 5 -15 -5 -9 13 -8 30 1 18
10 40 4 41 -11 1 -8 2 -20 2 -26 3 -16 42 -25 42 -11 0 7 5 5 10 -3 5 -8 10
-11 10 -6 0 5 6 3 13 -3 8 -6 18 -7 23 -3 4 4 2 -1 -5 -10 -15 -20 -7 -53 10
-42 6 3 3 -6 -6 -20 -14 -21 -15 -26 -4 -24 8 2 13 -3 11 -10 -1 -8 2 -11 8
-7 5 3 10 0 10 -7 0 -10 2 -10 8 -1 6 9 13 3 26 -18 15 -26 20 -28 34 -17 13
11 15 10 9 -5 -4 -11 -3 -16 3 -12 6 3 10 -1 10 -10 0 -10 -5 -13 -12 -9 -6 4
-8 3 -4 -4 3 -6 16 -9 28 -7 25 5 61 -22 51 -38 -3 -6 -1 -7 5 -3 6 3 16 -2
22 -11 10 -16 11 -16 6 -1 -3 10 -1 20 4 23 6 4 10 -9 11 -27 1 -30 2 -31 8
-8 6 23 8 23 12 5 8 -27 0 -47 -14 -38 -7 4 -6 -1 2 -10 7 -9 11 -17 7 -17
-10 0 21 -55 40 -71 13 -10 11 -5 -4 16 -25 34 -36 75 -21 75 6 0 7 4 4 10 -3
5 -2 10 4 10 13 0 25 -45 18 -64 -3 -8 2 -21 12 -30 20 -18 33 -12 24 11 -4
11 -8 11 -13 3 -5 -9 -9 -9 -14 -1 -4 6 -3 11 3 11 6 0 8 8 4 18 -3 11 1 9 12
-6 15 -21 19 -38 27 -119 1 -12 6 -19 10 -17 5 3 6 9 3 14 -3 5 -1 11 5 15 5
3 10 12 10 18 0 7 -4 6 -11 -3 -8 -12 -9 -9 -4 10 5 19 4 22 -4 10 -9 -13 -11
-13 -11 3 0 9 5 17 11 17 5 0 7 6 3 13 -4 6 -3 8 1 4 17 -15 25 -77 14 -99 -5
-10 -5 -19 0 -22 5 -3 8 -19 7 -35 -1 -16 0 -29 3 -29 19 2 22 -4 10 -20 -13
-15 -12 -16 3 -4 14 11 18 10 28 -7 10 -19 7 -24 -10 -23 -3 0 -7 -9 -7 -21
-2 -17 0 -19 7 -7 9 14 14 7 11 -13 -1 -5 3 -6 9 -2 8 5 8 11 0 20 -7 9 -8 15
-1 19 6 4 8 13 5 20 -3 8 -1 17 5 20 6 4 8 13 5 20 -3 8 -1 17 5 21 7 4 8 0 4
-11 -5 -13 -3 -15 8 -9 11 7 12 6 2 -6 -15 -18 -19 -67 -8 -93 7 -15 5 -17 -6
-11 -8 5 -2 -6 14 -24 26 -31 37 -58 19 -47 -5 3 -9 -2 -9 -11 0 -12 5 -11 19
7 10 12 18 27 18 34 0 6 -5 4 -11 -4 -9 -13 -10 -12 -5 2 3 10 1 20 -4 23 -5
3 -7 13 -4 23 5 13 4 14 -4 4 -7 -11 -10 -10 -16 3 -3 9 -3 22 1 27 4 7 1 8
-6 3 -10 -6 -11 -3 -3 11 6 11 10 23 10 27 0 5 3 11 6 14 3 3 3 -7 0 -22 -5
-26 -4 -27 13 -14 17 13 17 13 1 -7 -22 -25 -24 -41 -4 -25 12 10 14 8 11 -14
-2 -18 2 -25 11 -21 7 3 16 0 20 -6 4 -7 3 -8 -4 -4 -15 9 -15 1 -1 -25 9 -17
13 -18 27 -7 9 7 6 0 -7 -15 -29 -32 -17 -36 15 -6 14 14 24 17 29 10 3 -7 3
-10 -2 -9 -4 2 -9 -1 -10 -7 -1 -5 7 -9 18 -9 19 1 19 0 3 -17 -12 -13 -21
-16 -29 -9 -12 10 -25 4 -25 -12 0 -5 4 -7 9 -3 5 3 12 1 15 -4 8 -12 41 -7
41 7 0 22 11 20 13 -3 1 -14 4 -36 5 -49 1 -13 5 -22 10 -19 4 2 5 20 3 40 -3
19 -2 32 2 28 4 -3 7 -23 8 -43 3 -53 3 -54 13 -47 5 3 7 18 5 32 -3 15 -3 25
1 22 11 -11 14 -49 4 -54 -5 -4 -9 -14 -9 -23 0 -13 2 -13 15 4 15 19 15 19 8
-1 -6 -18 -5 -19 13 -5 17 14 18 13 7 -1 -10 -12 -10 -18 0 -28 6 -7 8 -12 2
-11 -5 2 -12 1 -15 0 -16 -7 -60 -6 -60 2 0 4 4 8 9 8 11 0 8 56 -3 67 -5 4
-5 -2 -2 -14 8 -26 -7 -62 -18 -44 -4 6 -3 11 3 11 5 0 8 8 6 17 -2 10 -4 22
-4 28 -1 5 -8 -1 -17 -13 -9 -13 -13 -26 -10 -29 3 -3 1 -15 -5 -26 -9 -15 -8
-18 2 -12 9 6 11 3 6 -8 -5 -14 4 -15 76 -11 113 8 194 17 257 29 14 3 41 8
60 11 19 4 44 9 55 11 11 2 29 6 40 8 11 2 27 6 35 8 8 2 29 7 45 11 55 14
160 49 170 56 6 5 13 9 17 10 46 8 335 155 366 187 7 7 23 18 35 24 11 7 26
16 31 21 20 16 53 43 91 73 49 38 202 191 240 240 17 20 38 47 47 59 72 88
115 159 188 306 28 58 58 117 66 133 9 15 12 27 8 27 -3 0 -1 7 6 15 7 8 9 15
5 15 -4 0 -3 6 3 13 9 11 35 92 45 142 2 6 6 16 10 23 5 6 6 16 2 21 -3 5 -1
12 4 16 5 3 10 13 9 23 0 9 5 42 11 72 20 98 21 104 27 145 3 22 8 58 12 80
11 80 14 5134 2 5250 -15 153 -62 380 -104 507 -186 567 -635 1013 -1207 1198
-113 37 -299 77 -479 102 -64 9 -705 12 -2540 13 -1350 1 -2484 0 -2520 -2z
m-1158 -5605 c-9 -9 -8 -16 5 -30 9 -10 13 -18 9 -18 -4 0 -4 -5 0 -11 4 -8 9
-7 15 2 5 8 2 20 -7 30 -12 14 -13 18 -2 25 7 4 10 4 6 -1 -4 -4 -3 -14 3 -22
10 -11 15 -11 28 -1 14 11 14 11 4 -3 -7 -9 -9 -20 -5 -24 4 -5 1 -4 -7 0 -11
6 -13 4 -8 -9 4 -9 3 -15 -2 -12 -4 3 -16 -3 -25 -13 -10 -11 -13 -22 -8 -25
6 -3 12 -1 14 6 2 6 11 12 20 14 10 1 15 -3 12 -10 -3 -7 2 -13 11 -13 18 0
18 2 5 27 -7 13 -7 21 0 25 6 4 9 3 8 -2 -4 -16 14 -53 23 -47 5 3 6 11 2 17
-9 15 -16 53 -7 45 3 -3 6 -12 8 -20 1 -7 5 -18 9 -25 4 -6 3 -14 -3 -18 -5
-3 -10 -11 -10 -17 0 -6 9 -3 20 7 19 17 19 16 14 -10 -4 -23 -2 -26 8 -17 9
7 19 8 28 2 10 -7 11 -10 3 -10 -7 0 -13 -5 -13 -11 0 -5 5 -7 12 -3 6 4 9 3
6 -2 -3 -5 -2 -18 3 -29 7 -18 8 -18 10 5 1 14 2 33 2 42 0 10 4 15 8 12 5 -3
7 -9 4 -14 -7 -11 30 -32 39 -23 3 3 6 1 6 -6 0 -7 -6 -11 -13 -8 -8 3 -14 -1
-14 -8 0 -16 26 -13 37 4 9 16 33 5 27 -12 -2 -7 -1 -19 4 -28 4 -8 3 -22 -2
-30 -7 -12 -9 -12 -9 0 0 11 -4 9 -15 -5 -8 -10 -15 -15 -15 -10 0 5 -7 3 -15
-4 -10 -9 -15 -9 -16 -1 -5 38 -21 74 -28 62 -4 -6 -15 6 -25 30 -12 27 -21
37 -26 29 -5 -9 -10 -6 -15 10 -6 18 -9 20 -16 9 -7 -12 -9 -11 -9 1 0 13 -1
13 -11 0 -8 -12 -9 -10 -4 9 5 16 4 21 -4 17 -6 -4 -11 -13 -11 -20 0 -7 -9
-21 -19 -30 -15 -14 -21 -15 -27 -4 -5 7 -7 20 -6 29 2 9 -8 25 -21 36 -13 10
-22 24 -21 31 1 7 0 8 -3 2 -7 -15 -23 -1 -16 15 3 8 0 15 -7 15 -6 0 -8 -5
-4 -12 4 -7 3 -8 -4 -4 -7 4 -12 2 -12 -3 0 -6 5 -11 11 -11 5 0 7 -5 4 -10
-11 -18 -24 -1 -23 30 1 32 19 44 52 34 12 -4 18 -3 14 1 -8 8 9 35 20 35 3 0
1 -5 -6 -12z"/>
<path d="M4130 7749 c-706 -9 -892 -25 -1115 -96 -443 -142 -707 -454 -794
-940 -43 -240 -46 -338 -46 -1568 1 -1173 9 -1559 34 -1575 14 -8 14 -19 -1
-37 -8 -10 -6 -13 4 -13 18 0 19 22 6 75 -13 49 -19 236 -8 250 4 6 6 20 5 32
-1 18 1 20 12 11 8 -6 10 -14 6 -17 -11 -8 -16 -30 -14 -73 1 -21 1 -44 1 -50
1 -7 -1 -34 -3 -60 -1 -27 1 -48 6 -48 4 0 5 -5 1 -12 -4 -6 -3 -8 3 -5 9 6
10 40 3 72 -1 6 -2 19 -1 30 1 16 3 17 10 5 6 -8 7 -18 4 -24 -3 -5 -1 -6 5
-2 7 4 12 2 12 -5 0 -35 19 19 24 71 4 40 5 42 16 35 8 -5 8 -11 0 -20 -8 -9
-8 -15 0 -20 6 -3 7 -12 3 -18 -11 -18 -12 -38 -1 -31 5 3 7 9 4 12 -3 3 -1
11 5 18 7 8 7 14 -1 19 -8 5 -6 13 6 27 18 19 18 19 37 -4 15 -19 17 -19 9 -3
-5 11 -8 26 -6 33 1 7 0 8 -3 2 -2 -5 -9 -7 -14 -4 -6 3 -5 11 2 20 14 17 43
-1 32 -20 -3 -6 -2 -7 3 -3 5 5 9 17 9 28 0 10 5 18 10 17 6 -2 9 -11 9 -21
-1 -10 1 -15 4 -12 4 3 7 17 8 31 0 13 -1 22 -4 19 -3 -3 -11 0 -19 6 -11 10
-11 15 -1 27 10 13 10 14 0 8 -7 -4 -12 -1 -12 9 0 9 -4 14 -9 10 -6 -3 -8
-14 -6 -25 2 -12 0 -18 -5 -15 -5 3 -11 1 -15 -5 -4 -6 -10 -8 -15 -5 -7 5
-38 -24 -32 -32 1 -1 2 -6 1 -10 0 -5 -5 1 -10 12 -7 17 -8 15 -6 -10 2 -16 2
-24 0 -17 -3 7 -9 10 -14 6 -5 -3 -6 -10 -3 -16 5 -7 2 -8 -6 -3 -9 6 -11 4
-5 -5 5 -8 4 -11 -3 -6 -7 4 -8 -3 -2 -24 6 -21 5 -28 -2 -24 -7 5 -8 2 -3 -7
5 -8 4 -11 0 -6 -11 10 -14 87 -3 93 5 3 6 9 3 14 -7 11 14 25 38 25 9 0 17 5
17 10 0 6 -10 9 -21 9 -11 -1 -17 1 -14 5 4 3 12 6 18 6 7 1 11 7 9 15 -3 11
1 10 15 -3 15 -13 22 -14 31 -5 17 17 15 33 -2 19 -11 -9 -16 -9 -22 0 -4 7
-3 9 4 5 13 -8 34 27 24 40 -4 5 2 1 13 -8 20 -16 21 -16 22 2 1 11 -3 19 -9
17 -6 -1 -13 5 -15 13 -4 13 -3 13 6 0 10 -14 16 -7 12 13 -1 5 3 6 9 2 5 -3
10 -14 10 -24 0 -27 12 -33 32 -14 18 16 25 7 11 -13 -5 -5 -1 -2 8 8 20 21
34 11 17 -11 -9 -11 -6 -10 9 2 24 21 24 53 -1 51 -9 -1 -13 3 -9 10 3 6 -8
-4 -24 -22 l-31 -33 -7 37 c-5 28 -2 41 11 53 9 9 14 11 10 5 -8 -16 19 -25
33 -11 10 9 12 9 9 -2 -2 -7 2 -15 9 -18 7 -3 10 5 9 21 -4 32 0 33 15 5 7
-15 8 -19 0 -15 -7 5 -8 1 -4 -10 4 -11 8 -13 11 -6 2 7 9 9 14 6 6 -4 8 -2 4
4 -3 6 -2 13 4 17 5 3 10 -1 10 -9 0 -8 4 -17 9 -20 5 -4 7 4 4 16 -5 23 -5
23 11 3 l16 -20 -7 20 c-6 18 -5 19 11 6 9 -8 16 -10 15 -5 -4 25 4 36 11 14
l8 -25 2 25 c1 14 2 29 1 33 -1 5 3 6 7 3 5 -3 7 -16 5 -30 -3 -13 0 -26 5
-30 6 -3 8 2 5 13 -3 10 1 22 7 26 18 11 31 -16 17 -35 -10 -13 -10 -13 4 -2
10 7 15 23 12 40 -3 23 -2 24 6 7 8 -17 10 -17 10 -3 1 9 5 19 10 22 5 4 7 -4
3 -16 -5 -19 -4 -20 10 -8 8 8 15 19 14 25 -1 5 2 10 6 10 4 0 14 9 23 20 l16
20 -9 -20 c-5 -11 -7 -27 -5 -35 3 -9 -1 -7 -11 5 -8 11 -16 15 -16 9 0 -6 7
-17 15 -24 8 -7 15 -9 15 -4 0 4 13 -4 28 -19 20 -19 29 -23 29 -13 0 8 -3 15
-6 14 -18 -2 -21 4 -10 23 9 17 8 20 -3 14 -7 -5 -10 -5 -6 0 4 4 3 16 -2 26
-7 12 -7 20 0 24 8 5 8 11 1 19 -8 9 -7 13 3 13 14 0 16 -21 4 -33 -9 -8 2
-34 14 -34 5 0 7 4 4 8 -2 4 0 14 6 22 8 12 9 12 4 -2 -3 -10 -1 -20 4 -23 6
-4 10 -1 10 6 0 7 2 10 5 7 3 -3 1 -16 -4 -29 -9 -21 -10 -22 -11 -4 0 17 -2
17 -10 5 -13 -20 -13 -33 0 -25 9 6 14 -8 11 -28 -1 -5 3 -6 8 -2 6 3 8 11 5
19 -3 7 2 13 11 13 10 0 14 -6 10 -16 -4 -14 -4 -14 7 -1 16 19 44 19 40 0 -3
-11 0 -11 14 1 9 8 20 13 23 11 3 -2 7 2 9 10 3 10 2 10 -6 -1 -6 -8 -12 -10
-16 -3 -4 6 -15 9 -26 7 -12 -2 -18 0 -15 6 4 5 11 6 17 3 6 -4 9 -1 6 6 -7
23 -24 22 -36 -2 -6 -14 -11 -17 -11 -8 -1 13 -3 13 -12 0 -9 -12 -10 -11 -4
5 4 11 8 25 9 32 1 7 6 16 10 20 4 4 7 3 6 -2 -5 -21 1 -25 20 -15 11 6 20 7
19 3 -3 -13 13 -43 22 -43 6 0 5 10 -1 23 l-11 22 17 -22 c9 -13 21 -23 26
-23 6 0 6 6 -1 14 -9 11 -9 16 0 22 7 4 9 3 5 -4 -3 -6 -2 -14 4 -17 8 -5 7
-11 -1 -21 -9 -11 -9 -14 0 -14 7 0 10 -4 6 -9 -3 -5 -2 -12 3 -15 5 -3 8 13
7 35 -3 65 12 58 17 -8 1 -9 5 -9 13 -3 7 5 15 7 18 4 4 -4 5 3 2 14 -2 12 1
25 7 28 6 4 8 3 5 -3 -3 -5 0 -21 8 -36 7 -14 10 -29 7 -33 -4 -5 1 -2 11 5 9
7 17 19 17 25 0 6 -4 5 -9 -3 -6 -9 -11 -10 -15 -2 -4 6 -2 11 3 11 20 0 26 3
38 19 8 10 7 2 -2 -21 -10 -24 -11 -39 -5 -43 6 -4 7 -11 4 -17 -4 -6 -2 -8 4
-4 6 3 9 16 7 28 -3 11 0 28 6 37 9 14 10 14 5 -1 -4 -13 0 -18 13 -18 22 0
44 23 33 35 -4 5 -1 5 6 1 9 -5 9 -12 1 -27 -7 -15 -7 -24 1 -34 7 -8 9 -20 5
-27 -4 -7 3 -2 15 12 14 16 20 19 16 8 -3 -10 -1 -20 5 -23 5 -4 8 -3 7 2 -3
7 5 13 17 13 2 0 0 -12 -5 -26 -7 -16 -7 -23 0 -19 6 3 10 13 10 21 0 8 5 14
11 14 5 0 7 -5 3 -12 -4 -7 -3 -8 5 -4 8 5 10 0 7 -18 -3 -15 -1 -24 5 -21 5
4 7 11 4 16 -4 5 -1 9 5 9 6 0 9 4 5 9 -3 5 -1 12 5 16 5 3 10 12 10 18 0 7
-7 4 -14 -6 -9 -12 -16 -14 -21 -8 -3 6 -1 11 5 11 6 0 8 5 3 13 -10 16 -14
41 -5 32 4 -4 7 -11 7 -16 0 -5 5 -9 10 -10 6 0 17 -7 26 -15 9 -8 18 -12 20
-9 3 2 6 -6 6 -18 2 -17 0 -19 -7 -7 -8 11 -9 9 -6 -10 2 -14 -2 -32 -8 -40
-10 -13 -9 -13 6 -1 10 7 15 17 13 22 -3 4 2 12 11 17 9 5 15 12 15 15 -1 4 1
7 4 7 3 0 8 0 12 0 3 0 -2 -9 -12 -20 -10 -11 -14 -20 -10 -20 5 0 -2 -12 -16
-27 -13 -15 -17 -22 -8 -15 9 6 19 9 22 5 10 -9 8 -23 -2 -20 -5 1 -8 -2 -8
-8 1 -5 7 -10 13 -11 13 -2 15 27 2 43 -5 7 -5 14 2 18 6 3 8 10 6 14 -3 4 3
12 13 18 14 9 17 7 18 -16 1 -22 0 -23 -6 -7 -7 19 -8 19 -13 -1 -3 -11 -2
-26 2 -33 10 -16 0 -61 -13 -53 -6 4 -7 1 -2 -6 11 -19 26 1 27 38 1 25 4 29
15 19 10 -8 11 -14 3 -22 -5 -5 -10 -17 -9 -26 0 -8 4 -5 10 9 5 13 12 22 14
19 8 -8 -14 -60 -23 -54 -4 2 -8 -4 -9 -14 -1 -11 2 -22 8 -25 5 -4 6 2 2 12
-6 16 -5 16 10 4 14 -11 15 -17 5 -30 -12 -15 -11 -15 6 -1 18 14 19 13 13 -3
-4 -10 -3 -16 2 -12 6 3 15 -3 21 -12 10 -17 10 -17 8 1 -2 10 3 21 10 23 6 3
10 -1 9 -9 -2 -7 -2 -10 0 -5 3 4 10 4 16 0 15 -9 41 -14 33 -6 -3 4 -1 12 6
20 9 11 8 13 -2 11 -8 -2 -14 9 -16 32 -2 30 -2 32 6 10 6 -19 8 -21 9 -6 1
16 4 15 23 -9 20 -26 20 -29 5 -40 -9 -7 -17 -16 -17 -20 0 -4 6 -2 14 4 9 8
16 8 20 2 4 -6 -3 -15 -14 -21 -11 -6 -20 -16 -19 -23 0 -9 2 -9 6 1 7 18 22
15 19 -5 -2 -10 6 -24 16 -31 17 -12 22 -11 42 11 13 14 27 23 30 20 3 -4 -1
-14 -10 -24 -14 -16 -14 -18 3 -23 10 -3 23 -5 28 -3 10 2 12 7 14 42 1 16 3
17 10 5 6 -8 8 -17 6 -21 -3 -3 4 -14 15 -24 18 -16 19 -16 15 19 -2 20 1 39
6 42 5 3 6 -3 2 -12 -4 -11 -3 -15 5 -10 6 3 14 1 18 -5 4 -7 3 -9 -4 -5 -6 4
-10 -1 -9 -13 1 -15 4 -17 14 -10 9 8 22 1 49 -28 20 -21 33 -32 30 -25 -4 6
-2 12 3 12 6 0 11 -5 11 -11 0 -5 5 -7 12 -3 7 4 8 3 4 -4 -4 -7 -15 -12 -25
-12 -22 0 -64 43 -54 55 5 4 2 5 -4 1 -8 -4 -13 -2 -13 5 0 7 -3 9 -7 6 -3 -4
4 -18 17 -32 29 -31 15 -33 -19 -2 -22 19 -23 19 -8 1 9 -11 14 -24 10 -29 -5
-4 -3 -5 3 -2 7 4 17 0 24 -8 8 -10 24 -14 42 -11 16 2 26 0 22 -5 -3 -5 2
-12 10 -15 9 -3 13 -11 9 -17 -3 -6 -1 -7 6 -3 9 6 9 11 0 22 -6 8 -9 17 -5
21 3 3 6 0 6 -7 0 -10 5 -9 18 3 14 13 21 14 30 5 7 -7 12 -17 12 -23 0 -5 -5
-2 -11 8 -8 14 -14 15 -24 7 -8 -6 -11 -19 -8 -27 6 -14 8 -14 15 3 6 14 7 12
4 -11 -4 -26 -2 -27 8 -12 7 9 16 14 19 10 4 -3 1 -13 -5 -22 -7 -9 -9 -13 -4
-9 5 4 17 3 27 -2 13 -8 21 -6 29 7 10 16 11 15 6 -6 -4 -18 -2 -21 7 -12 18
18 31 13 16 -6 -11 -15 -11 -16 1 -5 20 17 29 15 25 -7 -4 -23 20 -48 30 -31
4 6 1 9 -5 8 -15 -4 -22 29 -9 38 5 3 9 -2 9 -11 0 -15 1 -15 16 0 20 19 14
27 -20 27 -15 0 -23 5 -19 11 3 5 1 7 -4 4 -6 -4 -14 0 -17 9 -3 8 -10 12 -16
9 -5 -3 -10 -1 -10 5 0 6 -4 9 -8 6 -5 -3 -24 8 -43 25 -19 16 -40 27 -46 24
-7 -2 -12 0 -10 6 1 5 -11 17 -28 27 -16 9 -32 19 -35 22 -3 3 -27 23 -55 45
-452 358 -698 943 -631 1503 50 418 218 757 518 1048 477 462 1182 597 1802
345 508 -207 890 -658 1010 -1193 57 -253 57 -494 0 -747 -146 -649 -661
-1154 -1313 -1287 -199 -40 -481 -44 -629 -7 -20 5 -23 2 -20 -13 2 -11 9 -20
16 -20 6 -1 15 -3 20 -4 4 -1 10 -2 15 -1 4 0 7 -5 7 -12 1 -6 8 -1 16 13 l15
25 -5 -25 c-4 -21 -3 -23 7 -9 15 20 69 19 75 -1 3 -13 2 -12 -7 0 -10 13 -11
13 -11 0 0 -13 -1 -13 -10 0 -9 13 -10 13 -10 0 0 -12 -2 -12 -9 -2 -7 11 -9
10 -14 -3 -4 -9 -3 -13 2 -10 5 3 12 1 15 -4 3 -5 19 -7 36 -6 16 1 30 -1 30
-4 0 -4 7 -16 15 -27 15 -19 15 -19 8 1 -6 18 -5 19 12 5 10 -8 20 -14 22 -12
1 1 2 -1 1 -5 -2 -5 -7 -7 -13 -5 -5 2 -7 0 -3 -4 4 -4 2 -14 -4 -23 -7 -9 -1
-6 13 7 22 19 28 20 37 9 7 -8 10 -17 7 -20 -3 -4 -2 -4 3 -1 4 3 8 10 8 15 3
22 6 23 13 5 7 -19 8 -19 13 2 4 12 2 20 -3 16 -5 -3 -6 2 -3 10 3 9 1 16 -6
16 -6 0 -9 -4 -5 -9 3 -5 0 -13 -6 -17 -8 -4 -9 -3 -5 5 4 7 2 10 -5 9 -7 -2
-18 7 -24 20 -18 34 -28 40 -21 12 6 -19 5 -21 -3 -10 -10 13 -11 13 -11 0 0
-13 -1 -13 -10 0 -8 13 -10 13 -10 1 0 -11 -4 -9 -15 5 -8 10 -14 24 -15 29 0
6 5 3 10 -5 8 -13 10 -13 10 -1 0 11 4 10 16 -5 12 -15 14 -15 11 -2 -8 24 26
16 39 -10 6 -12 14 -19 17 -16 3 4 1 16 -5 28 -7 14 -2 12 17 -9 26 -28 29
-28 35 -10 4 11 5 24 2 29 -3 5 0 6 7 2 6 -4 9 -12 6 -17 -8 -12 4 -49 16 -49
6 0 5 9 -2 23 -6 12 -8 19 -4 15 5 -4 15 -2 24 4 13 10 14 10 4 -2 -15 -16
-17 -34 -4 -26 5 3 14 -1 21 -9 7 -8 17 -15 23 -15 5 0 3 8 -6 18 -10 10 -17
23 -17 28 0 5 5 1 11 -9 9 -15 13 -16 27 -5 15 11 15 11 6 -2 -6 -8 -10 -27
-7 -42 2 -14 -1 -29 -6 -32 -5 -4 -7 3 -3 16 3 14 2 19 -7 14 -6 -4 -9 -11 -6
-16 3 -5 0 -12 -6 -16 -9 -5 -10 1 -5 20 4 18 3 25 -3 21 -6 -3 -9 -23 -8 -44
2 -36 17 -49 17 -15 0 8 5 12 10 9 6 -4 7 -11 4 -17 -4 -6 -2 -8 3 -5 6 4 16
0 23 -8 7 -8 9 -15 5 -15 -4 0 -2 -6 4 -13 6 -8 7 -18 3 -22 -4 -5 -1 -5 6 -1
8 5 10 12 4 19 -10 12 -9 29 3 66 4 13 2 21 -5 21 -6 0 -8 -5 -4 -12 4 -7 3
-8 -4 -4 -17 10 -15 26 4 26 8 0 12 5 9 10 -4 6 -10 8 -14 6 -4 -3 -8 1 -8 9
0 8 3 13 5 10 3 -3 12 1 21 8 14 10 14 10 4 -4 -7 -9 -9 -19 -5 -23 7 -7 8
-11 11 -37 0 -5 5 -8 10 -5 10 7 9 25 -2 43 -4 6 -3 15 3 18 6 4 9 1 8 -7 -2
-7 3 -12 11 -10 11 2 12 0 4 -10 -6 -7 -9 -24 -7 -38 3 -19 2 -22 -6 -10 -9
13 -10 13 -10 0 0 -13 -2 -13 -10 0 -6 10 -8 4 -5 -20 2 -19 4 -35 5 -35 1 0
3 -10 6 -23 3 -17 0 -21 -8 -16 -7 4 -2 -5 11 -19 20 -23 41 -28 41 -11 0 3
-4 3 -9 0 -5 -3 -14 1 -21 9 -10 12 -10 15 0 15 9 0 9 4 2 13 -17 20 -18 23
-3 41 11 13 16 14 22 4 6 -9 9 -9 9 -1 0 6 -4 14 -10 18 -6 3 -6 15 0 29 5 13
6 28 2 32 -4 5 1 2 11 -5 9 -7 17 -10 17 -6 0 4 8 1 17 -6 15 -12 16 -12 9 6
-5 14 -4 17 4 9 7 -7 8 -19 1 -36 -5 -14 -7 -29 -4 -32 3 -3 -4 -4 -15 -1 -12
2 -23 -3 -26 -11 -3 -9 -10 -13 -15 -10 -5 3 -11 -1 -15 -9 -3 -8 -1 -17 5
-20 5 -4 7 -10 4 -15 -3 -4 2 -11 11 -14 10 -4 13 -13 9 -25 -3 -11 -1 -22 4
-26 7 -4 8 1 4 12 -6 16 -5 16 10 4 9 -7 17 -10 17 -6 0 4 7 2 15 -5 8 -7 12
-17 8 -24 -4 -6 2 -4 12 4 17 14 18 13 11 -5 -4 -11 -4 -16 0 -12 9 9 35 -13
29 -23 -3 -5 0 -12 6 -16 7 -4 9 -3 5 4 -3 6 -2 13 4 17 10 6 15 -9 10 -30 -1
-5 2 -7 6 -2 12 11 16 49 4 42 -5 -3 -16 5 -25 19 -11 16 -23 23 -37 21 -14
-3 -17 -1 -10 8 5 7 8 20 6 30 -1 11 1 16 4 12 4 -4 8 -11 8 -16 3 -22 5 -23
14 -9 9 13 10 13 10 0 0 -13 2 -13 11 0 9 13 10 12 5 -2 -3 -10 0 -18 6 -18 6
0 22 -12 35 -26 14 -15 18 -24 10 -21 -19 7 -29 -14 -16 -34 7 -11 9 -10 9 5
0 12 5 16 15 12 8 -3 15 -1 15 5 0 5 10 1 22 -11 12 -11 28 -20 36 -20 8 0 12
-6 8 -15 -3 -8 -1 -15 4 -15 6 0 10 4 10 10 0 5 12 -2 26 -15 15 -14 30 -22
35 -20 12 8 27 -25 21 -49 -4 -20 -4 -20 10 -2 14 17 16 16 48 -25 20 -25 25
-36 12 -25 -12 11 -22 15 -22 10 1 -11 30 -51 30 -40 0 5 7 3 15 -4 9 -7 13
-21 10 -31 -6 -19 8 -20 35 -4 13 8 13 7 0 -10 -14 -17 -13 -18 2 -13 10 4 23
-2 34 -15 11 -12 15 -19 10 -15 -14 12 -46 -11 -46 -33 0 -11 5 -17 10 -14 6
4 8 10 5 15 -3 5 0 12 6 16 7 4 9 3 5 -4 -3 -6 -2 -13 4 -17 6 -4 5 -13 -2
-25 -10 -15 -7 -24 16 -54 22 -29 25 -39 16 -56 -6 -11 -8 -25 -5 -30 9 -15
27 -1 21 16 -3 7 0 16 6 20 6 4 8 3 5 -3 -4 -6 1 -19 9 -29 9 -10 12 -13 8 -5
-4 9 -2 12 7 9 16 -5 21 -46 6 -55 -6 -3 -7 -1 -3 5 4 6 -4 16 -16 23 -19 9
-21 9 -10 -2 19 -21 14 -34 -7 -15 -17 16 -18 15 -17 -6 1 -13 -1 -28 -6 -34
-5 -6 1 -19 14 -30 12 -10 18 -13 13 -5 -7 11 -4 12 11 5 29 -14 273 -7 292 8
12 10 14 10 8 1 -9 -16 66 -17 254 -3 282 21 490 70 655 153 119 59 191 111
285 207 238 240 331 508 360 1040 17 307 24 1577 11 2110 -14 618 -29 787 -86
985 -60 208 -147 358 -290 500 -109 109 -204 174 -339 231 -199 85 -381 117
-756 133 -304 14 -1282 19 -1960 10z m2652 -581 c118 -55 206 -170 228 -299
45 -257 -191 -495 -446 -452 -166 29 -288 140 -330 302 -49 193 76 407 276
472 14 5 68 7 120 6 79 -2 105 -7 152 -29z"/>
<path d="M4673 6136 c-396 -76 -718 -351 -843 -722 -112 -330 -64 -687 133
-979 57 -85 187 -216 274 -276 656 -453 1560 -86 1708 694 17 92 20 296 4 383
-75 426 -384 765 -800 880 -117 32 -359 42 -476 20z"/>
<path d="M5286 2958 c3 -12 2 -18 -3 -15 -5 4 -10 0 -10 -8 0 -8 8 -12 20 -10
13 3 17 0 13 -10 -3 -8 -2 -16 2 -19 4 -3 8 4 9 14 1 11 -2 22 -8 25 -5 4 -9
14 -9 23 0 23 32 -37 34 -64 1 -12 8 -29 15 -38 11 -13 16 -14 29 -4 13 11 15
10 9 -4 -4 -11 -2 -17 6 -15 7 1 11 -4 10 -10 -2 -7 3 -12 10 -10 6 1 11 -3
10 -10 -2 -7 6 -10 17 -8 11 2 24 -4 30 -13 9 -16 9 -16 10 1 0 15 -10 21 -31
19 -3 -1 -6 6 -6 13 0 11 4 12 13 4 9 -7 15 -5 22 7 7 13 9 6 8 -28 -1 -27 3
-44 8 -40 5 3 6 -3 2 -14 -4 -10 -4 -15 0 -11 4 4 18 -3 31 -15 27 -25 31 -47
6 -27 -16 12 -17 12 -6 -2 7 -9 11 -19 8 -22 -3 -4 -2 -5 2 -2 3 3 13 -1 21
-8 11 -8 14 -8 9 0 -4 6 -2 15 4 19 8 5 10 -4 7 -29 -2 -20 -1 -34 3 -31 4 2
11 -2 16 -10 6 -12 11 -9 21 12 9 19 9 23 0 14 -19 -19 -28 -14 -28 12 0 14 9
31 21 39 13 9 16 17 10 22 -6 3 -11 1 -11 -6 0 -7 -8 -5 -21 7 -12 10 -24 18
-28 17 -3 -2 -6 7 -6 20 0 12 -4 22 -10 22 -5 0 -20 10 -32 22 -15 15 -18 24
-10 32 7 7 6 15 -3 26 -11 14 -14 14 -25 -1 -12 -17 -40 -11 -30 7 3 5 -2 6
-11 2 -12 -4 -15 -3 -10 5 4 7 14 12 21 12 9 0 12 6 9 15 -6 14 -8 13 -20 -2
-11 -14 -13 -15 -9 -2 7 19 -37 52 -51 39 -5 -4 -18 2 -29 14 -11 11 -16 18
-10 14 5 -5 14 -8 19 -8 16 0 -32 31 -55 35 -16 3 -19 0 -13 -17z"/>
</g>
</svg>
